<?xml version="1.0" encoding="utf-8"?>
<!-- Generator: Adobe Illustrator 24.0.1, SVG Export Plug-In . SVG Version: 6.00 Build 0)  -->
<svg version="1.1" id="Layer_1" xmlns="http://www.w3.org/2000/svg" xmlns:xlink="http://www.w3.org/1999/xlink" x="0px" y="0px"
	 viewBox="0 0 1325.5 1291.9" style="enable-background:new 0 0 1325.5 1291.9;" xml:space="preserve">
<style type="text/css">
	.st0{fill:#1B75BC;}
	.st1{enable-background:new    ;}
	.st2{fill:#FFFFFF;}
</style>
<circle class="st0" cx="655.8" cy="645.9" r="605.9"/>
<g class="st1">
	<path class="st2" d="M1037,809c0,39.8-10.2,79.1-29.4,113.6C966.3,996.9,887.9,1043,803,1043c-8.8,0-17.7-0.5-26.5-1.5
		c-8.8,1-17.7,1.5-26.5,1.5H343.6V573.5h420.3c32.8-6.6,56.3-35.2,56.3-68.9c0-31.6-21.7-59.7-52-67.8H507.1v0.2H343.6V270.7H750
		c83.5,0,161.2,45,202.9,117.3c0.6,1.1,1.3,2.2,1.9,3.4c19.1,34.5,29.2,73.6,29.2,113.2c0,40-10.3,79.4-29.7,114.1
		c-0.3,0.6-0.6,1.2-1,1.8l-0.1,0.3l-0.1,0.1l0,0.1c-1.1,1.9-2.2,3.8-3.4,5.7c2.9,2.4,5.8,4.7,8.5,7.2c19.7,17.5,36.3,38,49.1,61.1
		C1026.7,729.6,1037,769.1,1037,809z M507.1,877.1h313.4c30.7-7.9,52.7-36.1,52.7-68.1c0-32.8-22.7-61.1-54.4-68.4H507.1V877.1z"/>
</g>
</svg>
